<?xml version="1.0" standalone="no"?>
<!DOCTYPE svg PUBLIC "-//W3C//DTD SVG 20010904//EN"
 "http://www.w3.org/TR/2001/REC-SVG-20010904/DTD/svg10.dtd">
<svg version="1.0" xmlns="http://www.w3.org/2000/svg"
 width="700.000000pt" height="700.000000pt" viewBox="0 0 700.000000 700.000000"
 preserveAspectRatio="xMidYMid meet">
<metadata>
Created by potrace 1.14, written by Peter Selinger 2001-2017
</metadata>
<g transform="translate(0.000000,700.000000) scale(0.100000,-0.100000)"
fill="#000000" stroke="none">
<path d="M0 3500 l0 -3500 3500 0 3500 0 0 3500 0 3500 -3500 0 -3500 0 0
-3500z m4897 2062 c148 -398 -37 -860 -421 -1054 -164 -83 -1832 -861 -1847
-862 -10 -1 -56 52 -121 139 -129 174 -226 290 -351 422 -53 56 -97 106 -97
110 0 4 597 287 1327 628 730 341 1357 634 1393 652 36 17 71 31 79 30 8 -1
25 -30 38 -65z m-308 -1434 c43 -100 56 -178 55 -323 -1 -122 -4 -152 -28
-230 -61 -202 -182 -366 -354 -481 -44 -29 -1039 -502 -1093 -519 -12 -4 -25
19 -59 107 -61 162 -171 402 -247 542 -52 95 -63 122 -52 129 24 15 1744 817
1752 817 4 0 16 -19 26 -42z m-781 -1703 c58 -151 68 -377 23 -533 -42 -145
-133 -296 -239 -393 -61 -57 -162 -129 -181 -129 -6 0 -11 16 -11 35 0 108
-59 477 -112 702 -18 73 -30 134 -27 136 14 11 506 237 515 237 6 0 21 -25 32
-55z"/>
</g>
</svg>
